<?xml version="1.0" encoding="UTF-8" standalone="no"?>
<!-- Created with Inkscape (http://www.inkscape.org/) -->

<svg
   xmlns:osb="http://www.openswatchbook.org/uri/2009/osb"
   xmlns:dc="http://purl.org/dc/elements/1.1/"
   xmlns:cc="http://creativecommons.org/ns#"
   xmlns:rdf="http://www.w3.org/1999/02/22-rdf-syntax-ns#"
   xmlns:svg="http://www.w3.org/2000/svg"
   xmlns="http://www.w3.org/2000/svg"
   xmlns:xlink="http://www.w3.org/1999/xlink"
   xmlns:sodipodi="http://sodipodi.sourceforge.net/DTD/sodipodi-0.dtd"
   xmlns:inkscape="http://www.inkscape.org/namespaces/inkscape"
   width="388.78488"
   height="109.23202"
   viewBox="0 0 388.78488 109.23202"
   id="svg2"
   version="1.1"
   inkscape:version="0.91 r13725"
   sodipodi:docname="ab_logo_path.svg">
  <defs
     id="defs4">
    <linearGradient
       id="AB_red"
       osb:paint="solid">
      <stop
         style="stop-color:#e4021d;stop-opacity:1;"
         offset="0"
         id="stop4211" />
    </linearGradient>
    <linearGradient
       id="linearGradient4203"
       osb:paint="solid">
      <stop
         style="stop-color:#db001a;stop-opacity:1;"
         offset="0"
         id="stop4205" />
    </linearGradient>
    <linearGradient
       id="linearGradient4179"
       osb:paint="solid">
      <stop
         style="stop-color:#000000;stop-opacity:1;"
         offset="0"
         id="stop4181" />
    </linearGradient>
    <linearGradient
       id="AB_blue"
       osb:paint="solid">
      <stop
         style="stop-color:#1955af;stop-opacity:1;"
         offset="0"
         id="stop4173" />
    </linearGradient>
    <linearGradient
       inkscape:collect="always"
       xlink:href="#AB_blue"
       id="linearGradient5204"
       gradientUnits="userSpaceOnUse"
       gradientTransform="translate(-1.5787659,-2)"
       x1="401.93222"
       y1="533.24054"
       x2="654.65332"
       y2="533.24054" />
    <linearGradient
       inkscape:collect="always"
       xlink:href="#AB_blue"
       id="linearGradient5206"
       gradientUnits="userSpaceOnUse"
       gradientTransform="translate(-1.5787659,-2)"
       x1="401.93222"
       y1="533.24054"
       x2="654.65332"
       y2="533.24054" />
    <linearGradient
       inkscape:collect="always"
       xlink:href="#AB_blue"
       id="linearGradient5208"
       gradientUnits="userSpaceOnUse"
       gradientTransform="translate(0,0.01287842)"
       x1="421.49887"
       y1="576.15967"
       x2="755.63794"
       y2="576.15967" />
    <linearGradient
       inkscape:collect="always"
       xlink:href="#AB_red"
       id="linearGradient5210"
       gradientUnits="userSpaceOnUse"
       gradientTransform="translate(2,0)"
       x1="752.18835"
       y1="585.39758"
       x2="767.13831"
       y2="585.39758" />
  </defs>
  <sodipodi:namedview
     id="base"
     pagecolor="#ffffff"
     bordercolor="#666666"
     borderopacity="1.0"
     inkscape:pageopacity="0.0"
     inkscape:pageshadow="2"
     inkscape:zoom="2.803451"
     inkscape:cx="194.20328"
     inkscape:cy="73.201337"
     inkscape:document-units="px"
     inkscape:current-layer="layer1"
     showgrid="false"
     inkscape:window-width="1220"
     inkscape:window-height="756"
     inkscape:window-x="60"
     inkscape:window-y="0"
     inkscape:window-maximized="1"
     units="px"
     fit-margin-top="10"
     fit-margin-left="10"
     fit-margin-right="10"
     fit-margin-bottom="10"
     inkscape:showpageshadow="true"
     showborder="true" />
  <metadata
     id="metadata7">
    <rdf:RDF>
      <cc:Work
         rdf:about="">
        <dc:format>image/svg+xml</dc:format>
        <dc:type
           rdf:resource="http://purl.org/dc/dcmitype/StillImage" />
        <dc:title></dc:title>
      </cc:Work>
    </rdf:RDF>
  </metadata>
  <g
     inkscape:label="Layer 1"
     inkscape:groupmode="layer"
     id="layer1"
     transform="translate(-390.35345,-503.01555)">
    <g
       style="font-style:italic;font-variant:normal;font-weight:100;font-stretch:normal;font-size:50px;line-height:125%;font-family:'Helvetica Neue';-inkscape-font-specification:'Helvetica Neue, Thin Italic';text-align:start;letter-spacing:0px;word-spacing:0px;writing-mode:lr-tb;text-anchor:start;fill:url(#linearGradient5204);fill-opacity:1;stroke:url(#linearGradient5206);stroke-width:0.2;stroke-linecap:butt;stroke-linejoin:miter;stroke-miterlimit:4;stroke-dasharray:none;stroke-opacity:1"
       id="text3336">
      <path
         d="m 404.20345,535.71555 9.15,-6.65 14.2,19.75 1.2,0 -14.6,-20.35 20.8,-15.35 -1.65,0 -28.8,21.2 4.5,-21.2 -1,0 -7.55,35.7 0.95,0 2.8,-13.1 z"
         style="font-style:italic;font-variant:normal;font-weight:100;font-stretch:normal;font-size:50px;line-height:125%;font-family:'Helvetica Neue';-inkscape-font-specification:'Helvetica Neue, Thin Italic';text-align:start;writing-mode:lr-tb;text-anchor:start;fill:url(#linearGradient5204);fill-opacity:1;stroke:url(#linearGradient5206);stroke-width:0.2;stroke-linejoin:miter;stroke-miterlimit:4;stroke-dasharray:none;stroke-opacity:1"
         id="path5213" />
      <path
         d="m 430.94095,548.81555 1.05,0 7.5,-35.7 -1.1,0 -7.45,35.7 z"
         style="font-style:italic;font-variant:normal;font-weight:100;font-stretch:normal;font-size:50px;line-height:125%;font-family:'Helvetica Neue';-inkscape-font-specification:'Helvetica Neue, Thin Italic';text-align:start;writing-mode:lr-tb;text-anchor:start;fill:url(#linearGradient5204);fill-opacity:1;stroke:url(#linearGradient5206);stroke-width:0.2;stroke-linejoin:miter;stroke-miterlimit:4;stroke-dasharray:none;stroke-opacity:1"
         id="path5215" />
      <path
         d="m 441.43392,530.56555 1,0 q 0.85,-3.35 3.2,-5.2 2.4,-1.9 6.3,-1.85 1.5,0 2.75,0.25 1.25,0.25 2.15,0.9 0.9,0.6 1.4,1.65 0.55,1 0.55,2.6 0,1.8 -0.5,2.9 -0.45,1.1 -1.35,1.75 -0.85,0.65 -2,0.9 -1.15,0.2 -2.5,0.2 -0.9,0 -1.85,0.05 -0.9,0 -1.9,0.05 -2.15,0 -4.15,0.35 -2,0.3 -3.55,1.2 -1.55,0.9 -2.5,2.55 -0.95,1.6 -0.95,4.2 0,1.7 0.65,2.9 0.6,1.2 1.65,1.95 1.05,0.75 2.4,1.1 1.4,0.35 2.9,0.35 3.75,0 6.2,-1.4 2.5,-1.4 4.3,-4.4 l 0.1,0 q -0.15,0.65 -0.35,1.25 -0.15,0.55 -0.15,1.55 0,2.6 2.6,2.6 0.9,0 1.7,-0.15 l 0,-1 q -0.65,0.2 -1.75,0.2 -0.6,0 -1.1,-0.3 -0.45,-0.3 -0.45,-1.35 0,-0.55 0.05,-0.9 0.05,-0.4 0.15,-0.85 l 2.95,-12.55 q 0.15,-0.75 0.25,-1.5 0.15,-0.75 0.15,-1.65 0,-3.35 -2.15,-4.85 -2.1,-1.55 -5.7,-1.55 -4.05,0.05 -6.8,1.9 -2.7,1.85 -3.7,6.15 z m 16.35,3.75 -1.05,4.45 q -0.55,2.1 -1.55,3.9 -0.95,1.75 -2.4,3.05 -1.45,1.25 -3.35,2 -1.9,0.7 -4.3,0.7 -1.35,0 -2.55,-0.3 -1.2,-0.35 -2.15,-1 -0.9,-0.65 -1.45,-1.65 -0.5,-1 -0.5,-2.4 0,-2.35 0.9,-3.75 0.95,-1.45 2.4,-2.2 1.45,-0.75 3.25,-1 1.85,-0.3 3.7,-0.4 1.1,0 2.45,0 1.35,-0.05 2.6,-0.2 1.3,-0.15 2.35,-0.45 1.05,-0.3 1.55,-0.85 l 0.1,0.1 z"
         style="font-style:italic;font-variant:normal;font-weight:100;font-stretch:normal;font-size:50px;line-height:125%;font-family:'Helvetica Neue';-inkscape-font-specification:'Helvetica Neue, Thin Italic';text-align:start;writing-mode:lr-tb;text-anchor:start;fill:url(#linearGradient5204);fill-opacity:1;stroke:url(#linearGradient5206);stroke-width:0.2;stroke-linejoin:miter;stroke-miterlimit:4;stroke-dasharray:none;stroke-opacity:1"
         id="path5217" />
      <path
         d="m 468.25735,548.81555 1.35,0 14.8,-25.7 -1.15,0 -14.15,24.7 -0.1,0 -4.4,-24.7 -1.05,0 4.7,25.7 z"
         style="font-style:italic;font-variant:normal;font-weight:100;font-stretch:normal;font-size:50px;line-height:125%;font-family:'Helvetica Neue';-inkscape-font-specification:'Helvetica Neue, Thin Italic';text-align:start;writing-mode:lr-tb;text-anchor:start;fill:url(#linearGradient5204);fill-opacity:1;stroke:url(#linearGradient5206);stroke-width:0.2;stroke-linejoin:miter;stroke-miterlimit:4;stroke-dasharray:none;stroke-opacity:1"
         id="path5219" />
      <path
         d="m 482.21985,548.81555 1.05,0 2.7,-12.9 q 0.4,-1.65 0.8,-2.85 0.45,-1.25 0.95,-2.3 0.4,-0.85 1.2,-2.05 0.8,-1.2 1.95,-2.3 1.15,-1.1 2.6,-1.9 1.5,-0.8 3.3,-0.8 1.25,0 1.8,0.2 l 0.2,-1 q -0.75,-0.2 -2.05,-0.2 -3.15,0 -5.5,1.95 -2.3,1.95 -3.85,5 l -0.1,-0.1 0.75,-3.15 0.7,-3.3 -1.1,0 -5.4,25.7 z"
         style="font-style:italic;font-variant:normal;font-weight:100;font-stretch:normal;font-size:50px;line-height:125%;font-family:'Helvetica Neue';-inkscape-font-specification:'Helvetica Neue, Thin Italic';text-align:start;writing-mode:lr-tb;text-anchor:start;fill:url(#linearGradient5204);fill-opacity:1;stroke:url(#linearGradient5206);stroke-width:0.2;stroke-linejoin:miter;stroke-miterlimit:4;stroke-dasharray:none;stroke-opacity:1"
         id="path5221" />
      <path
         d="m 517.95814,535.16555 -20.1,0 q 0.45,-2.4 1.4,-4.5 1,-2.1 2.5,-3.7 1.5,-1.6 3.55,-2.5 2.05,-0.95 4.6,-0.95 2.1,0 3.65,0.75 1.55,0.7 2.6,1.95 1.05,1.2 1.55,2.85 0.5,1.65 0.5,3.45 0,0.75 -0.05,1.35 -0.05,0.6 -0.2,1.3 z m -20.3,1 21.35,0 q 0.1,-1.05 0.15,-1.85 0.05,-0.85 0.05,-1.8 0,-2.1 -0.6,-3.9 -0.6,-1.85 -1.75,-3.2 -1.15,-1.35 -2.9,-2.1 -1.75,-0.8 -4.05,-0.8 -3.35,0 -5.9,1.45 -2.5,1.4 -4.2,3.75 -1.65,2.3 -2.5,5.25 -0.8,2.9 -0.8,5.9 0,2.2 0.55,4.15 0.6,1.9 1.8,3.35 1.2,1.4 3,2.2 1.8,0.8 4.2,0.8 4.7,0 7.55,-2.3 2.9,-2.3 4.05,-6.7 l -1.05,0 q -1.15,4.2 -3.85,6.15 -2.7,1.9 -6.75,1.9 -1.2,0 -2.7,-0.35 -1.45,-0.4 -2.75,-1.4 -1.3,-1.05 -2.2,-2.9 -0.85,-1.85 -0.85,-4.85 0,-1.65 0.15,-2.75 z"
         style="font-style:italic;font-variant:normal;font-weight:100;font-stretch:normal;font-size:50px;line-height:125%;font-family:'Helvetica Neue';-inkscape-font-specification:'Helvetica Neue, Thin Italic';text-align:start;writing-mode:lr-tb;text-anchor:start;fill:url(#linearGradient5204);fill-opacity:1;stroke:url(#linearGradient5206);stroke-width:0.2;stroke-linejoin:miter;stroke-miterlimit:4;stroke-dasharray:none;stroke-opacity:1"
         id="path5223" />
      <path
         d="m 540.90814,530.81555 1,0 q 0.25,-2.35 -0.3,-3.9 -0.55,-1.6 -1.75,-2.55 -1.15,-1 -2.85,-1.4 -1.65,-0.45 -3.6,-0.45 -1.65,0 -3.25,0.4 -1.55,0.4 -2.8,1.25 -1.2,0.85 -1.95,2.15 -0.75,1.25 -0.75,3.05 0,1.8 0.75,2.95 0.8,1.1 1.95,1.85 1.2,0.75 2.6,1.25 1.45,0.45 2.75,0.95 1.1,0.45 2.2,0.9 1.1,0.4 2,1.05 0.9,0.6 1.45,1.5 0.55,0.9 0.55,2.25 0,1.75 -0.75,3 -0.75,1.2 -1.95,1.95 -1.2,0.75 -2.7,1.1 -1.5,0.3 -3.05,0.3 -2.15,0 -3.8,-0.45 -1.65,-0.45 -2.75,-1.4 -1.05,-1 -1.5,-2.55 -0.45,-1.6 -0.15,-3.9 l -1,0 q 0,0.5 -0.05,0.95 -0.05,0.45 -0.05,0.95 0,2.15 0.7,3.55 0.75,1.4 2,2.25 1.3,0.85 3,1.2 1.7,0.35 3.6,0.35 1.8,0 3.5,-0.4 1.7,-0.35 3,-1.2 1.35,-0.85 2.15,-2.25 0.8,-1.4 0.8,-3.45 0,-1.85 -0.85,-3 -0.8,-1.15 -2.05,-1.9 -1.2,-0.75 -2.65,-1.2 -1.45,-0.5 -2.75,-1 -1.1,-0.45 -2.2,-0.9 -1.05,-0.45 -1.9,-1.05 -0.8,-0.6 -1.35,-1.45 -0.5,-0.9 -0.5,-2.2 0,-1.65 0.7,-2.75 0.75,-1.1 1.85,-1.8 1.15,-0.7 2.5,-1 1.4,-0.3 2.7,-0.3 1.85,0 3.35,0.45 1.5,0.4 2.5,1.3 1,0.85 1.45,2.25 0.45,1.35 0.2,3.3 z"
         style="font-style:italic;font-variant:normal;font-weight:100;font-stretch:normal;font-size:50px;line-height:125%;font-family:'Helvetica Neue';-inkscape-font-specification:'Helvetica Neue, Thin Italic';text-align:start;writing-mode:lr-tb;text-anchor:start;fill:url(#linearGradient5204);fill-opacity:1;stroke:url(#linearGradient5206);stroke-width:0.2;stroke-linejoin:miter;stroke-miterlimit:4;stroke-dasharray:none;stroke-opacity:1"
         id="path5225" />
      <path
         d="m 552.25267,515.01555 -1.7,8.1 -4.85,0 -0.2,1 4.85,0 -4.05,19.05 q -0.1,0.75 -0.25,1.5 -0.15,0.7 -0.15,1.45 0,0.9 0.3,1.5 0.35,0.55 0.9,0.85 0.55,0.3 1.25,0.4 0.7,0.1 1.45,0.1 0.7,0 1.35,-0.05 0.7,-0.05 1.4,-0.1 l 0.2,-1 q -0.85,0.2 -2.4,0.2 -0.55,0 -1.2,0 -0.6,-0.05 -1.1,-0.2 -0.5,-0.2 -0.85,-0.65 -0.3,-0.45 -0.3,-1.35 0.05,-0.75 0.2,-1.5 0.15,-0.75 0.3,-1.45 l 4,-18.75 5.6,0 0.2,-1 -5.6,0 1.7,-8.1 -1.05,0 z"
         style="font-style:italic;font-variant:normal;font-weight:100;font-stretch:normal;font-size:50px;line-height:125%;font-family:'Helvetica Neue';-inkscape-font-specification:'Helvetica Neue, Thin Italic';text-align:start;writing-mode:lr-tb;text-anchor:start;fill:url(#linearGradient5204);fill-opacity:1;stroke:url(#linearGradient5206);stroke-width:0.2;stroke-linejoin:miter;stroke-miterlimit:4;stroke-dasharray:none;stroke-opacity:1"
         id="path5227" />
      <path
         d="m 555.86439,548.81555 1.05,0 2.7,-12.9 q 0.4,-1.65 0.8,-2.85 0.45,-1.25 0.95,-2.3 0.4,-0.85 1.2,-2.05 0.8,-1.2 1.95,-2.3 1.15,-1.1 2.6,-1.9 1.5,-0.8 3.3,-0.8 1.25,0 1.8,0.2 l 0.2,-1 q -0.75,-0.2 -2.05,-0.2 -3.15,0 -5.5,1.95 -2.3,1.95 -3.85,5 l -0.1,-0.1 0.75,-3.15 0.7,-3.3 -1.1,0 -5.4,25.7 z"
         style="font-style:italic;font-variant:normal;font-weight:100;font-stretch:normal;font-size:50px;line-height:125%;font-family:'Helvetica Neue';-inkscape-font-specification:'Helvetica Neue, Thin Italic';text-align:start;writing-mode:lr-tb;text-anchor:start;fill:url(#linearGradient5204);fill-opacity:1;stroke:url(#linearGradient5206);stroke-width:0.2;stroke-linejoin:miter;stroke-miterlimit:4;stroke-dasharray:none;stroke-opacity:1"
         id="path5229" />
      <path
         d="m 581.95267,515.26555 -1.05,0 -0.65,4.05 1.05,0 0.65,-4.05 z m 7.9,0 -1.05,0 -0.65,4.05 1.05,0 0.65,-4.05 z m -18.6,24 q 0,-2.8 0.75,-5.6 0.8,-2.85 2.35,-5.1 1.55,-2.25 3.85,-3.65 2.35,-1.4 5.45,-1.4 4.05,0 6.45,2.5 2.45,2.5 2.45,7.05 0,2.6 -0.8,5.35 -0.8,2.7 -2.35,4.95 -1.55,2.2 -3.9,3.65 -2.3,1.4 -5.4,1.4 -4.4,0 -6.65,-2.45 -2.2,-2.5 -2.2,-6.7 z m -1,0 q 0,4.7 2.5,7.4 2.55,2.7 7.35,2.7 3.3,0 5.8,-1.45 2.5,-1.5 4.2,-3.85 1.7,-2.35 2.55,-5.25 0.9,-2.9 0.9,-5.75 0,-2.35 -0.7,-4.3 -0.65,-1.95 -1.95,-3.3 -1.25,-1.4 -3.1,-2.15 -1.8,-0.8 -4.15,-0.8 -3.25,0 -5.75,1.45 -2.5,1.4 -4.2,3.8 -1.7,2.35 -2.6,5.35 -0.85,3 -0.85,6.15 z"
         style="font-style:italic;font-variant:normal;font-weight:100;font-stretch:normal;font-size:50px;line-height:125%;font-family:'Helvetica Neue';-inkscape-font-specification:'Helvetica Neue, Thin Italic';text-align:start;writing-mode:lr-tb;text-anchor:start;fill:url(#linearGradient5204);fill-opacity:1;stroke:url(#linearGradient5206);stroke-width:0.2;stroke-linejoin:miter;stroke-miterlimit:4;stroke-dasharray:none;stroke-opacity:1"
         id="path5231" />
      <path
         d="m 600.32923,523.11555 -5.5,25.7 1.05,0 3,-13.95 q 0.35,-1.85 1.25,-3.85 0.9,-2 2.2,-3.65 1.35,-1.7 3.1,-2.75 1.75,-1.1 3.8,-1.1 2.55,0 4.05,1.55 1.5,1.55 1.5,4.1 0,0.65 -0.1,1.25 -0.05,0.6 -0.15,1.2 l -3.65,17.2 1.05,0 3.2,-14.6 q 0.35,-1.7 1.05,-3.55 0.75,-1.9 1.95,-3.45 1.2,-1.6 2.85,-2.65 1.7,-1.05 3.95,-1.05 2.85,0 4.45,1.55 1.65,1.55 1.65,4.25 0,1 -0.15,1.65 -0.1,0.65 -0.3,1.5 l -3.6,16.35 1.05,0 3.4,-15.4 q 0.25,-1.05 0.4,-2.1 0.2,-1.05 0.2,-2 0,-3.3 -2,-5.05 -1.95,-1.75 -5.1,-1.75 -1.65,0 -3.1,0.55 -1.45,0.55 -2.6,1.5 -1.15,0.95 -2,2.25 -0.85,1.25 -1.35,2.75 l -0.1,-0.1 q 0.05,-1.5 -0.35,-2.75 -0.4,-1.25 -1.25,-2.2 -0.8,-0.95 -2.05,-1.45 -1.25,-0.55 -2.9,-0.55 -1.55,0 -2.9,0.55 -1.35,0.5 -2.5,1.4 -1.1,0.9 -2,2.1 -0.9,1.15 -1.55,2.45 l -0.1,0 1.25,-5.9 -1.1,0 z"
         style="font-style:italic;font-variant:normal;font-weight:100;font-stretch:normal;font-size:50px;line-height:125%;font-family:'Helvetica Neue';-inkscape-font-specification:'Helvetica Neue, Thin Italic';text-align:start;writing-mode:lr-tb;text-anchor:start;fill:url(#linearGradient5204);fill-opacity:1;stroke:url(#linearGradient5206);stroke-width:0.2;stroke-linejoin:miter;stroke-miterlimit:4;stroke-dasharray:none;stroke-opacity:1"
         id="path5233" />
      <path
         d="m 654.39642,530.81555 1,0 q 0.25,-2.35 -0.3,-3.9 -0.55,-1.6 -1.75,-2.55 -1.15,-1 -2.85,-1.4 -1.65,-0.45 -3.6,-0.45 -1.65,0 -3.25,0.4 -1.55,0.4 -2.8,1.25 -1.2,0.85 -1.95,2.15 -0.75,1.25 -0.75,3.05 0,1.8 0.75,2.95 0.8,1.1 1.95,1.85 1.2,0.75 2.6,1.25 1.45,0.45 2.75,0.95 1.1,0.45 2.2,0.9 1.1,0.4 2,1.05 0.9,0.6 1.45,1.5 0.55,0.9 0.55,2.25 0,1.75 -0.75,3 -0.75,1.2 -1.95,1.95 -1.2,0.75 -2.7,1.1 -1.5,0.3 -3.05,0.3 -2.15,0 -3.8,-0.45 -1.65,-0.45 -2.75,-1.4 -1.05,-1 -1.5,-2.55 -0.45,-1.6 -0.15,-3.9 l -1,0 q 0,0.5 -0.05,0.95 -0.05,0.45 -0.05,0.95 0,2.15 0.7,3.55 0.75,1.4 2,2.25 1.3,0.85 3,1.2 1.7,0.35 3.6,0.35 1.8,0 3.5,-0.4 1.7,-0.35 3,-1.2 1.35,-0.85 2.15,-2.25 0.8,-1.4 0.8,-3.45 0,-1.85 -0.85,-3 -0.8,-1.15 -2.05,-1.9 -1.2,-0.75 -2.65,-1.2 -1.45,-0.5 -2.75,-1 -1.1,-0.45 -2.2,-0.9 -1.05,-0.45 -1.9,-1.05 -0.8,-0.6 -1.35,-1.45 -0.5,-0.9 -0.5,-2.2 0,-1.65 0.7,-2.75 0.75,-1.1 1.85,-1.8 1.15,-0.7 2.5,-1 1.4,-0.3 2.7,-0.3 1.85,0 3.35,0.45 1.5,0.4 2.5,1.3 1,0.85 1.45,2.25 0.45,1.35 0.2,3.3 z"
         style="font-style:italic;font-variant:normal;font-weight:100;font-stretch:normal;font-size:50px;line-height:125%;font-family:'Helvetica Neue';-inkscape-font-specification:'Helvetica Neue, Thin Italic';text-align:start;writing-mode:lr-tb;text-anchor:start;fill:url(#linearGradient5204);fill-opacity:1;stroke:url(#linearGradient5206);stroke-width:0.2;stroke-linejoin:miter;stroke-miterlimit:4;stroke-dasharray:none;stroke-opacity:1"
         id="path5235" />
    </g>
    <g
       style="font-style:normal;font-weight:normal;font-size:50px;line-height:125%;font-family:sans-serif;letter-spacing:0px;word-spacing:0px;fill:#000000;fill-opacity:1;stroke:none;stroke-width:1px;stroke-linecap:butt;stroke-linejoin:miter;stroke-opacity:1"
       id="text3340" />
    <g
       style="font-style:italic;font-variant:normal;font-weight:normal;font-stretch:normal;font-size:50px;line-height:125%;font-family:'Helvetica Neue';-inkscape-font-specification:'Helvetica Neue, Italic';text-align:start;letter-spacing:0px;word-spacing:0px;writing-mode:lr-tb;text-anchor:start;fill:url(#linearGradient5208);fill-opacity:1;stroke:none;stroke-width:0.2;stroke-linecap:butt;stroke-linejoin:miter;stroke-miterlimit:4;stroke-dasharray:none;stroke-opacity:1"
       id="text3344">
      <path
         d="m 428.99888,558.24757 -7.5,35.7 4.2,0 1.95,-9.2 5.1,-4.55 5.05,13.75 4.75,0 -6.4,-16.3 11.25,-9.55 -5.55,0 -13,11.25 -0.1,-0.1 4.45,-21 -4.2,0 z"
         style="fill:url(#linearGradient5208);fill-opacity:1;stroke-width:0.2;stroke-miterlimit:4;stroke-dasharray:none"
         id="path5239" />
      <path
         d="m 446.57232,583.74757 q 0,2.35 0.75,4.35 0.75,1.95 2.15,3.4 1.4,1.4 3.4,2.2 2.05,0.8 4.6,0.8 3.4,0 6.05,-1.35 2.65,-1.35 4.5,-3.6 1.85,-2.3 2.8,-5.25 0.95,-2.95 0.95,-6.1 0,-5.25 -2.75,-7.95 -2.75,-2.75 -8,-2.75 -3.4,0 -6.1,1.35 -2.65,1.35 -4.55,3.6 -1.85,2.25 -2.85,5.2 -0.95,2.95 -0.95,6.1 z m 4.25,-0.05 q 0,-2 0.6,-4.2 0.65,-2.2 1.9,-4 1.25,-1.85 3.1,-3.05 1.85,-1.2 4.3,-1.2 1.75,0 3,0.6 1.3,0.55 2.15,1.55 0.85,0.95 1.25,2.3 0.4,1.35 0.4,2.85 0,1.9 -0.65,4.05 -0.6,2.15 -1.85,4 -1.2,1.8 -3,3 -1.75,1.2 -4.1,1.2 -3.5,0 -5.3,-1.95 -1.8,-1.95 -1.8,-5.15 z"
         style="fill:url(#linearGradient5208);fill-opacity:1;stroke-width:0.2;stroke-miterlimit:4;stroke-dasharray:none"
         id="path5241" />
      <path
         d="m 497.18326,593.94757 7.55,-35.7 -4.2,0 -2.75,13.8 -0.1,0 q -0.4,-1.3 -1.25,-2.15 -0.85,-0.9 -2,-1.4 -1.1,-0.55 -2.35,-0.75 -1.25,-0.25 -2.45,-0.25 -3.4,0 -6.1,1.5 -2.65,1.45 -4.5,3.8 -1.8,2.35 -2.8,5.3 -0.95,2.9 -0.95,5.85 0,2.35 0.65,4.3 0.65,1.95 1.95,3.35 1.3,1.35 3.2,2.15 1.9,0.75 4.35,0.75 2.6,0 4.6,-0.85 2.05,-0.9 3.95,-3.4 l 0.1,0 -0.9,3.7 4,0 z m -17.65,-10 q 0,-2.15 0.65,-4.4 0.65,-2.25 1.95,-4.1 1.3,-1.85 3.2,-3 1.9,-1.2 4.45,-1.2 3.15,0 4.8,1.9 1.7,1.9 1.7,4.8 0,2 -0.7,4.3 -0.65,2.25 -1.95,4.15 -1.25,1.9 -3.15,3.15 -1.9,1.25 -4.3,1.25 -3.5,0 -5.1,-1.85 -1.55,-1.85 -1.55,-5 z"
         style="fill:url(#linearGradient5208);fill-opacity:1;stroke-width:0.2;stroke-miterlimit:4;stroke-dasharray:none"
         id="path5243" />
      <path
         d="m 509.37076,568.09757 -5.45,25.85 4.2,0 2.9,-13.55 q 0.4,-1.9 0.9,-3.2 0.5,-1.35 1.85,-2.65 1.15,-1.3 2.85,-2.3 1.75,-1 3.5,-1 1.75,0 2.65,0.9 0.95,0.9 0.95,2.5 0,0.45 -0.25,1.75 -0.2,1.3 -0.55,2.8 l -3.1,14.75 4.25,0 2.85,-13.35 q 0.35,-1.65 0.85,-3.15 0.5,-1.5 1.55,-2.65 0.55,-0.7 1.3,-1.35 0.75,-0.65 1.6,-1.1 0.85,-0.5 1.75,-0.8 0.95,-0.3 1.85,-0.3 1.7,0 2.8,1 1.15,1 1.15,2.5 0,0.55 -0.15,1.4 -0.1,0.8 -0.25,1.4 l -3.6,16.4 4.25,0 3.25,-15.5 q 0.25,-1.1 0.5,-2.55 0.25,-1.45 0.25,-2.6 0,-1.6 -0.6,-2.7 -0.6,-1.1 -1.65,-1.75 -1,-0.7 -2.3,-1 -1.3,-0.35 -2.65,-0.35 -2.6,0 -5,1.3 -2.35,1.25 -3.85,3.35 -0.55,-2.55 -2.3,-3.6 -1.75,-1.05 -4.2,-1.05 -2.7,0 -5.05,1.25 -2.3,1.2 -3.95,3.3 l -0.1,-0.1 0.95,-3.85 -3.95,0 z"
         style="fill:url(#linearGradient5208);fill-opacity:1;stroke-width:0.2;stroke-miterlimit:4;stroke-dasharray:none"
         id="path5245" />
      <path
         d="m 549.34888,575.89757 4.25,0 q 0.2,-1.25 0.85,-2.1 0.65,-0.9 1.6,-1.45 0.95,-0.6 2.1,-0.85 1.2,-0.25 2.4,-0.25 0.85,0 1.75,0.15 0.95,0.15 1.7,0.55 0.75,0.35 1.25,1 0.5,0.65 0.5,1.7 0,1.3 -0.4,2.05 -0.35,0.75 -1.15,1.15 -0.8,0.4 -2.05,0.6 -1.2,0.15 -2.9,0.3 -2.15,0.2 -4.45,0.5 -2.3,0.3 -4.2,1.15 -1.9,0.8 -3.15,2.4 -1.2,1.6 -1.2,4.45 0,2 0.6,3.4 0.65,1.35 1.7,2.25 1.05,0.85 2.45,1.2 1.45,0.4 3.1,0.4 3.3,0 5.3,-0.95 2,-0.95 3.35,-2.75 l 0.1,0.1 q -0.2,1.7 0.7,2.65 0.9,0.95 2.65,0.95 0.55,0 1.3,-0.2 0.8,-0.15 1.3,-0.35 l 0.65,-3.15 q -0.3,0.1 -0.7,0.25 -0.35,0.1 -0.65,0.1 -0.55,0 -0.9,-0.35 -0.35,-0.35 -0.35,-1.25 0,-0.9 0.25,-1.9 0.3,-1 0.45,-1.8 l 1.65,-7.05 q 0.25,-1.05 0.5,-2.3 0.3,-1.3 0.3,-2.4 0,-1.95 -0.8,-3.2 -0.75,-1.3 -2.05,-2.05 -1.3,-0.75 -3,-1.05 -1.7,-0.3 -3.6,-0.3 -2.05,0 -3.95,0.5 -1.9,0.5 -3.4,1.55 -1.5,1.05 -2.55,2.65 -1,1.55 -1.3,3.7 z m 1.1,11.3 q 0.05,-1.65 0.85,-2.55 0.8,-0.95 2.05,-1.45 1.25,-0.5 2.8,-0.7 1.6,-0.25 3.15,-0.4 1.55,-0.15 2.9,-0.4 1.4,-0.3 2.3,-0.95 l 0.1,0 q -0.45,1.8 -0.85,3.5 -0.35,1.7 -1.4,3.15 -2.2,3.4 -7.25,3.4 -1.8,0 -3.25,-0.9 -1.4,-0.9 -1.4,-2.7 z"
         style="fill:url(#linearGradient5208);fill-opacity:1;stroke-width:0.2;stroke-miterlimit:4;stroke-dasharray:none"
         id="path5247" />
      <path
         d="m 577.87545,568.09757 -5.4,25.85 4.2,0 3,-14.3 q 0.4,-1.55 1.05,-2.95 0.65,-1.45 1.8,-2.45 1.2,-1.3 2.9,-2.15 1.75,-0.85 3.5,-0.85 1.9,0 3.2,0.9 1.3,0.85 1.3,2.7 0,0.35 -0.1,0.9 -0.05,0.5 -0.15,1.1 -0.1,0.55 -0.2,1.1 -0.1,0.5 -0.15,0.9 l -3.3,15.1 4.25,0 3.15,-14.75 q 0.35,-1.5 0.55,-2.85 0.2,-1.35 0.2,-2.2 0,-3.45 -1.8,-5.05 -1.75,-1.6 -5.4,-1.6 -2.7,0 -5.15,1.15 -2.45,1.1 -4.05,3.35 l -0.1,0 0.8,-3.9 -4.1,0 z"
         style="fill:url(#linearGradient5208);fill-opacity:1;stroke-width:0.2;stroke-miterlimit:4;stroke-dasharray:none"
         id="path5249" />
      <path
         d="m 621.05748,593.94757 5.45,-25.85 -4.25,0 -3,14.3 q -0.35,1.6 -1.2,3.15 -0.8,1.5 -2,2.7 -1.2,1.15 -2.75,1.85 -1.5,0.7 -3.3,0.7 -1.9,0 -3.2,-0.85 -1.3,-0.9 -1.3,-2.75 0,-0.35 0.05,-0.85 0.05,-0.55 0.15,-1.1 0.1,-0.6 0.2,-1.15 0.1,-0.55 0.2,-0.9 l 3.3,-15.1 -4.25,0 -3.15,14.75 q -0.35,1.5 -0.55,2.85 -0.2,1.35 -0.2,2.2 0,3.45 1.75,5.05 1.8,1.55 5.45,1.55 2.7,0 5.15,-1.1 2.45,-1.1 4.05,-3.35 l 0.1,0 -0.8,3.9 4.1,0 z"
         style="fill:url(#linearGradient5208);fill-opacity:1;stroke-width:0.2;stroke-miterlimit:4;stroke-dasharray:none"
         id="path5251" />
      <path
         d="m 634.28951,571.84757 -4.8,22.1 4.25,0 4.75,-22.1 5,0 0.7,-3.75 -4.95,0 q 0.35,-1.2 0.55,-2.35 0.25,-1.15 0.7,-2.05 0.5,-0.95 1.35,-1.5 0.85,-0.6 2.4,-0.6 0.45,0 0.95,0.1 0.5,0.05 1.05,0.15 l 0.7,-3.6 q -0.85,-0.25 -1.75,-0.3 -0.9,-0.1 -1.8,-0.1 -2.55,0 -4,0.9 -1.4,0.85 -2.2,2.3 -0.8,1.4 -1.25,3.25 -0.4,1.85 -0.9,3.8 l -4.4,0 -0.75,3.75 4.4,0 z"
         style="fill:url(#linearGradient5208);fill-opacity:1;stroke-width:0.2;stroke-miterlimit:4;stroke-dasharray:none"
         id="path5253" />
      <path
         d="m 645.83326,575.89757 4.25,0 q 0.2,-1.25 0.85,-2.1 0.65,-0.9 1.6,-1.45 0.95,-0.6 2.1,-0.85 1.2,-0.25 2.4,-0.25 0.85,0 1.75,0.15 0.95,0.15 1.7,0.55 0.75,0.35 1.25,1 0.5,0.65 0.5,1.7 0,1.3 -0.4,2.05 -0.35,0.75 -1.15,1.15 -0.8,0.4 -2.05,0.6 -1.2,0.15 -2.9,0.3 -2.15,0.2 -4.45,0.5 -2.3,0.3 -4.2,1.15 -1.9,0.8 -3.15,2.4 -1.2,1.6 -1.2,4.45 0,2 0.6,3.4 0.65,1.35 1.7,2.25 1.05,0.85 2.45,1.2 1.45,0.4 3.1,0.4 3.3,0 5.3,-0.95 2,-0.95 3.35,-2.75 l 0.1,0.1 q -0.2,1.7 0.7,2.65 0.9,0.95 2.65,0.95 0.55,0 1.3,-0.2 0.8,-0.15 1.3,-0.35 l 0.65,-3.15 q -0.3,0.1 -0.7,0.25 -0.35,0.1 -0.65,0.1 -0.55,0 -0.9,-0.35 -0.35,-0.35 -0.35,-1.25 0,-0.9 0.25,-1.9 0.3,-1 0.45,-1.8 l 1.65,-7.05 q 0.25,-1.05 0.5,-2.3 0.3,-1.3 0.3,-2.4 0,-1.95 -0.8,-3.2 -0.75,-1.3 -2.05,-2.05 -1.3,-0.75 -3,-1.05 -1.7,-0.3 -3.6,-0.3 -2.05,0 -3.95,0.5 -1.9,0.5 -3.4,1.55 -1.5,1.05 -2.55,2.65 -1,1.55 -1.3,3.7 z m 1.1,11.3 q 0.05,-1.65 0.85,-2.55 0.8,-0.95 2.05,-1.45 1.25,-0.5 2.8,-0.7 1.6,-0.25 3.15,-0.4 1.55,-0.15 2.9,-0.4 1.4,-0.3 2.3,-0.95 l 0.1,0 q -0.45,1.8 -0.85,3.5 -0.35,1.7 -1.4,3.15 -2.2,3.4 -7.25,3.4 -1.8,0 -3.25,-0.9 -1.4,-0.9 -1.4,-2.7 z"
         style="fill:url(#linearGradient5208);fill-opacity:1;stroke-width:0.2;stroke-miterlimit:4;stroke-dasharray:none"
         id="path5255" />
      <path
         d="m 676.45982,558.24757 -7.5,35.7 4.2,0 1.95,-9.2 5.1,-4.55 5.05,13.75 4.75,0 -6.4,-16.3 11.25,-9.55 -5.55,0 -13,11.25 -0.1,-0.1 4.45,-21 -4.2,0 z"
         style="fill:url(#linearGradient5208);fill-opacity:1;stroke-width:0.2;stroke-miterlimit:4;stroke-dasharray:none"
         id="path5257" />
      <path
         d="m 704.23326,568.09757 1.6,-7.65 -4.25,0 -1.6,7.65 -4.35,0 -0.8,3.75 4.35,0 -3.4,16.05 q -0.1,0.6 -0.2,1.1 -0.05,0.5 -0.05,1.05 0,1.25 0.45,2.05 0.5,0.8 1.25,1.3 0.8,0.45 1.85,0.6 1.05,0.2 2.25,0.2 0.75,0 1.5,-0.1 0.75,-0.05 1.5,-0.15 l 0.75,-3.9 q -0.6,0.2 -1.2,0.35 -0.6,0.1 -1.25,0.1 -1,0 -1.8,-0.35 -0.75,-0.4 -0.75,-1.4 0,-0.45 0.05,-0.85 0.05,-0.4 0.1,-0.85 l 3.2,-15.2 5.15,0 0.8,-3.75 -5.15,0 z"
         style="fill:url(#linearGradient5208);fill-opacity:1;stroke-width:0.2;stroke-miterlimit:4;stroke-dasharray:none"
         id="path5259" />
      <path
         d="m 729.45591,593.94757 5.45,-25.85 -4.25,0 -3,14.3 q -0.35,1.6 -1.2,3.15 -0.8,1.5 -2,2.7 -1.2,1.15 -2.75,1.85 -1.5,0.7 -3.3,0.7 -1.9,0 -3.2,-0.85 -1.3,-0.9 -1.3,-2.75 0,-0.35 0.05,-0.85 0.05,-0.55 0.15,-1.1 0.1,-0.6 0.2,-1.15 0.1,-0.55 0.2,-0.9 l 3.3,-15.1 -4.25,0 -3.15,14.75 q -0.35,1.5 -0.55,2.85 -0.2,1.35 -0.2,2.2 0,3.45 1.75,5.05 1.8,1.55 5.45,1.55 2.7,0 5.15,-1.1 2.45,-1.1 4.05,-3.35 l 0.1,0 -0.8,3.9 4.1,0 z"
         style="fill:url(#linearGradient5208);fill-opacity:1;stroke-width:0.2;stroke-miterlimit:4;stroke-dasharray:none"
         id="path5261" />
      <path
         d="m 741.88795,568.09757 -5.35,25.85 4.2,0 2.45,-11.45 q 0.3,-1.45 0.8,-3.1 0.5,-1.7 1.35,-2.95 1,-1.55 2.35,-2.65 1.4,-1.1 3.15,-1.55 0.75,-0.2 1.25,-0.2 0.5,-0.05 1.3,-0.05 l 0.6,0 q 0.45,0 0.65,0.05 l 1,-4.55 q -0.4,-0.1 -0.75,-0.05 -0.35,0.05 -0.75,0.05 -3.25,0 -5.6,1.75 -2.3,1.75 -3.8,4.4 l -0.1,0 1.25,-5.55 -4,0 z"
         style="fill:url(#linearGradient5208);fill-opacity:1;stroke-width:0.2;stroke-miterlimit:4;stroke-dasharray:none"
         id="path5263" />
    </g>
    <g
       style="font-style:italic;font-variant:normal;font-weight:bold;font-stretch:normal;font-size:50px;line-height:125%;font-family:'Helvetica Neue';-inkscape-font-specification:'Helvetica Neue, Bold Italic';text-align:start;letter-spacing:0px;word-spacing:0px;writing-mode:lr-tb;text-anchor:start;fill:url(#linearGradient5210);fill-opacity:1;stroke:none;stroke-width:1px;stroke-linecap:butt;stroke-linejoin:miter;stroke-opacity:1"
       id="text3348-3">
      <path
         d="m 761.23833,568.54757 -1.65,7.7 7.9,0 1.65,-7.7 -7.9,0 z m -3.75,17.7 -1.55,7.7 3.4,0 q -0.4,2.1 -1.35,3.25 -0.9,1.15 -3.05,1.5 l -0.75,3.55 q 2.45,-0.1 4.1,-0.85 1.65,-0.7 2.75,-1.9 1.1,-1.15 1.75,-2.7 0.65,-1.5 1.05,-3.25 0.45,-1.75 0.75,-3.6 0.35,-1.9 0.8,-3.7 l -7.9,0 z"
         style="fill:url(#linearGradient5210);fill-opacity:1"
         id="path5266" />
    </g>
    <g
       style="font-style:normal;font-variant:normal;font-weight:normal;font-stretch:normal;font-size:50px;line-height:125%;font-family:'Helvetica Neue';-inkscape-font-specification:'Helvetica Neue, Normal';text-align:start;letter-spacing:0px;word-spacing:0px;writing-mode:lr-tb;text-anchor:start;fill:#000000;fill-opacity:1;stroke:none;stroke-width:1px;stroke-linecap:butt;stroke-linejoin:miter;stroke-opacity:1"
       id="text4978" />
  </g>
</svg>
